<?xml version="1.0" encoding="UTF-8" standalone="no"?>
<!-- Created with Inkscape (http://www.inkscape.org/) -->

<svg
   width="210mm"
   height="297mm"
   viewBox="0 0 210 297"
   version="1.1"
   id="svg1"
   sodipodi:docname="ConnectBoy.svg"
   inkscape:version="1.3.2 (091e20e, 2023-11-25, custom)"
   xmlns:inkscape="http://www.inkscape.org/namespaces/inkscape"
   xmlns:sodipodi="http://sodipodi.sourceforge.net/DTD/sodipodi-0.dtd"
   xmlns="http://www.w3.org/2000/svg"
   xmlns:svg="http://www.w3.org/2000/svg">
  <sodipodi:namedview
     id="namedview1"
     pagecolor="#ffffff"
     bordercolor="#000000"
     borderopacity="0.25"
     inkscape:showpageshadow="2"
     inkscape:pageopacity="0.0"
     inkscape:pagecheckerboard="0"
     inkscape:deskcolor="#d1d1d1"
     inkscape:document-units="mm"
     inkscape:zoom="0.43074941"
     inkscape:cx="1647.1294"
     inkscape:cy="925.13186"
     inkscape:window-width="1600"
     inkscape:window-height="847"
     inkscape:window-x="-8"
     inkscape:window-y="-8"
     inkscape:window-maximized="1"
     inkscape:current-layer="layer1" />
  <defs
     id="defs1">
    <rect
       x="548.28555"
       y="72.229234"
       width="456.18755"
       height="133.14584"
       id="rect3" />
    <rect
       x="1279.1661"
       y="98.939827"
       width="148.57827"
       height="124.59919"
       id="rect8" />
  </defs>
  <g
     inkscape:label="Layer 1"
     inkscape:groupmode="layer"
     id="layer1">
    <rect
       style="fill:#ffff00;stroke-width:0.600001;stroke-linecap:round;stroke-linejoin:round;stroke-miterlimit:5;paint-order:fill markers stroke"
       id="rect1"
       width="60"
       height="70"
       x="117.65684"
       y="62.890202" />
    <g
       id="path5"
       transform="translate(206.46606,-10.907273)"
       style="stroke:#ececec;stroke-opacity:1"
       inkscape:export-filename="xando.png"
       inkscape:export-xdpi="200"
       inkscape:export-ydpi="200">
      <path
         style="color:#000000;fill:#000000;stroke:#ececec;stroke-linecap:round;stroke-linejoin:round;stroke-miterlimit:5;stroke-opacity:1;-inkscape-stroke:none;paint-order:fill markers stroke"
         d="m 96.797366,105.32183 -55.07526,-0.0752 m 55.07526,-19.924801 -55.07526,-0.07525 m 37.57525,-17.500003 -0.0752,55.075254 m -19.92475,-55.075254 -0.0752,55.075254"
         id="path6" />
      <path
         style="color:#000000;fill:#282828;stroke:#ececec;stroke-linecap:round;stroke-linejoin:round;stroke-miterlimit:5;stroke-opacity:1;-inkscape-stroke:none;paint-order:fill markers stroke"
         d="m 59.300781,65.246094 a 2.5,2.5 0 0 0 -2.503906,2.496093 l -0.01953,15.025391 -15.052735,-0.02148 a 2.5,2.5 0 0 0 -2.501953,2.496093 2.5,2.5 0 0 0 2.496094,2.503907 l 15.050781,0.02148 -0.01953,15.000002 -15.025391,-0.0215 a 2.5,2.5 0 0 0 -2.501953,2.49805 2.5,2.5 0 0 0 2.496094,2.50195 l 15.023437,0.0215 -0.01953,15.05078 a 2.5,2.5 0 0 0 2.496094,2.50391 2.5,2.5 0 0 0 2.503906,-2.4961 l 0.01953,-15.05273 15,0.0215 -0.01953,15.02344 a 2.5,2.5 0 0 0 2.496094,2.50391 2.5,2.5 0 0 0 2.503906,-2.4961 l 0.01953,-15.02539 15.052735,0.0215 a 2.5,2.5 0 0 0 2.501953,-2.4961 2.5,2.5 0 0 0 -2.496094,-2.5039 L 81.75,102.80078 81.76953,87.800781 96.794921,87.822261 A 2.5,2.5 0 0 0 99.296874,85.326167 2.5,2.5 0 0 0 96.80078,82.822261 L 81.777344,82.800781 81.796875,67.75 a 2.5,2.5 0 0 0 -2.496094,-2.503906 2.5,2.5 0 0 0 -2.503906,2.496093 l -0.01953,15.052735 -15,-0.02148 L 61.796875,67.75 a 2.5,2.5 0 0 0 -2.496094,-2.503906 z m 2.46875,22.527343 15,0.02148 -0.01953,15.000003 -15,-0.0215 z"
         id="path7" />
    </g>
    <circle
       style="fill:#ffff00;fill-opacity:1;stroke:#282828;stroke-width:0.666667;stroke-linecap:round;stroke-linejoin:round;stroke-miterlimit:5;stroke-dasharray:none;stroke-opacity:1;paint-order:fill markers stroke"
       id="path8"
       cx="255.61751"
       cy="64.144699"
       r="4.6666665" />
    <circle
       style="fill:#ffff00;fill-opacity:1;stroke:#282828;stroke-width:0.666667;stroke-linecap:round;stroke-linejoin:round;stroke-miterlimit:5;stroke-dasharray:none;stroke-opacity:1;paint-order:fill markers stroke"
       id="circle8"
       cx="295.83408"
       cy="104.51437"
       r="4.6666665" />
    <text
       xml:space="preserve"
       transform="matrix(0.17450988,0,0,0.20091174,39.527094,53.387607)"
       id="text8"
       style="font-weight:bold;font-size:85.3333px;font-family:Montserrat;-inkscape-font-specification:'Montserrat Bold';text-align:center;white-space:pre;shape-inside:url(#rect8);display:inline;fill:#5ac6ff;fill-opacity:1;stroke:#282828;stroke-width:3.77953;stroke-linecap:round;stroke-linejoin:round;stroke-miterlimit:5;stroke-dasharray:none;stroke-opacity:1;paint-order:fill markers stroke"><tspan
         x="1327.0444"
         y="177.36873"
         id="tspan2"><tspan
           style="font-weight:800;-inkscape-font-specification:'Montserrat Ultra-Bold'"
           id="tspan1">x</tspan></tspan></text>
    <rect
       style="fill:#ffff00;stroke-width:0.925821;stroke-linecap:round;stroke-linejoin:round;stroke-miterlimit:5;paint-order:fill markers stroke"
       id="rect2"
       width="100"
       height="100"
       x="318.31866"
       y="-23.542063" />
    <path
       style="fill:none;stroke:#ffffff;stroke-width:3.14324;stroke-linecap:round;stroke-linejoin:round;stroke-miterlimit:5;stroke-dasharray:none;stroke-dashoffset:0;stroke-opacity:1;paint-order:stroke fill markers"
       d="m 345.17594,15.785025 c -4.76723,0.91849 -10.28565,5.641648 -10.28565,10.672913 0,5.031264 5.51842,9.754422 10.28565,10.672912 16.59993,3.198287 29.68551,-24.544107 46.28544,-21.345825 4.76723,0.91849 10.28565,5.641648 10.28565,10.672913 0,5.031264 -5.51842,9.754422 -10.28565,10.672912 -16.59993,3.198287 -29.68551,-24.544107 -46.28544,-21.345825 z"
       id="path1"
       sodipodi:nodetypes="sssssss"
       inkscape:export-filename="Logo.png"
       inkscape:export-xdpi="200"
       inkscape:export-ydpi="200" />
    <text
       xml:space="preserve"
       transform="scale(0.26458333)"
       id="text1"
       style="font-weight:800;font-size:85.3333px;font-family:Montserrat;-inkscape-font-specification:'Montserrat Ultra-Bold';text-align:center;white-space:pre;shape-inside:url(#rect3);display:inline;fill:#5ac6ff;stroke:#282828;stroke-width:11.3386;stroke-linecap:round;stroke-linejoin:round;stroke-miterlimit:5;paint-order:fill markers stroke" />
    <text
       xml:space="preserve"
       style="font-weight:800;font-size:22.5778px;font-family:Montserrat;-inkscape-font-specification:'Montserrat Ultra-Bold';text-align:center;text-anchor:middle;fill:#f9f9f9;stroke:none;stroke-width:0.5;stroke-linecap:round;stroke-linejoin:round;stroke-miterlimit:5;paint-order:fill markers stroke;fill-opacity:1;stroke-dasharray:none"
       x="265.27371"
       y="20.335144"
       id="text6"
       inkscape:export-filename="..\UI\3dots.png"
       inkscape:export-xdpi="200"
       inkscape:export-ydpi="200"><tspan
         sodipodi:role="line"
         id="tspan6"
         style="stroke-width:0.5;fill:#f9f9f9;fill-opacity:1;stroke-dasharray:none;stroke:none"
         x="265.27371"
         y="20.335144">...</tspan></text>
    <rect
       style="fill:#f9f9f9;stroke-width:0.221553;stroke-linecap:round;stroke-linejoin:round;stroke-miterlimit:5;paint-order:fill markers stroke"
       id="rect4"
       width="50"
       height="50"
       x="329.84665"
       y="173.82979"
       ry="8.7226515"
       inkscape:export-filename="..\UI\Rounded Rect.png"
       inkscape:export-xdpi="200"
       inkscape:export-ydpi="200" />
    <path
       style="fill:#f9f9f9;stroke-width:0.378433;stroke-linecap:round;stroke-linejoin:round;stroke-miterlimit:5;paint-order:fill markers stroke"
       id="path2"
       sodipodi:type="arc"
       sodipodi:cx="536.45294"
       sodipodi:cy="211.57187"
       sodipodi:rx="50"
       sodipodi:ry="50"
       sodipodi:start="0"
       sodipodi:end="3.1513391"
       sodipodi:arc-type="slice"
       d="m 586.45294,211.57187 a 50,50 0 0 1 -25.14081,43.38226 50,50 0 0 1 -50.14001,-0.24434 50,50 0 0 1 -24.7168,-43.62524 l 49.99762,0.48732 z"
       inkscape:export-filename="..\UI\half_circle.png"
       inkscape:export-xdpi="200"
       inkscape:export-ydpi="200" />
  </g>
</svg>
